<svg xmlns="http://www.w3.org/2000/svg" viewBox="0 0 512 512" role="img" aria-label="하루풀이 앱 아이콘">
  <defs>
    <linearGradient id="bg" x1="88" y1="76" x2="428" y2="440" gradientUnits="userSpaceOnUse">
      <stop offset="0" stop-color="#fff7ef" />
      <stop offset="0.52" stop-color="#dff5ef" />
      <stop offset="1" stop-color="#78c8bd" />
    </linearGradient>
    <linearGradient id="card" x1="142" y1="128" x2="376" y2="382" gradientUnits="userSpaceOnUse">
      <stop offset="0" stop-color="#ffffff" />
      <stop offset="1" stop-color="#f6fbf8" />
    </linearGradient>
  </defs>
  <rect width="512" height="512" rx="116" fill="url(#bg)" />
  <circle cx="378" cy="132" r="44" fill="#f3a77b" opacity="0.9" />
  <path d="M146 156c0-21 17-38 38-38h150c21 0 38 17 38 38v214c0 21-17 38-38 38H184c-21 0-38-17-38-38V156Z" fill="url(#card)" stroke="#ffffff" stroke-width="10" />
  <path d="M190 204h138" stroke="#338f8b" stroke-width="18" stroke-linecap="round" />
  <path d="M190 258h98" stroke="#78c8bd" stroke-width="18" stroke-linecap="round" />
  <path d="M190 312h124" stroke="#f3a77b" stroke-width="18" stroke-linecap="round" />
  <path d="M344 268c-37-6-58-27-66-64-8 37-29 58-66 64 37 8 58 29 66 66 8-37 29-58 66-66Z" fill="#338f8b" opacity="0.16" />
  <path d="M382 350c-23-4-36-17-41-40-5 23-18 36-41 40 23 5 36 18 41 41 5-23 18-36 41-41Z" fill="#338f8b" />
</svg>
