<svg xmlns="http://www.w3.org/2000/svg" viewBox="0 0 1024 1024" role="img" aria-label="하루풀이 앱 아이콘 master">
  <defs>
    <linearGradient id="masterBg" x1="144" y1="116" x2="884" y2="908" gradientUnits="userSpaceOnUse">
      <stop offset="0" stop-color="#fff7ef" />
      <stop offset="0.48" stop-color="#e6f7f1" />
      <stop offset="1" stop-color="#78c8bd" />
    </linearGradient>
    <linearGradient id="masterCard" x1="284" y1="220" x2="740" y2="800" gradientUnits="userSpaceOnUse">
      <stop offset="0" stop-color="#ffffff" />
      <stop offset="1" stop-color="#f6fbf8" />
    </linearGradient>
    <filter id="softShadow" x="-20%" y="-20%" width="140%" height="140%">
      <feDropShadow dx="0" dy="28" stdDeviation="28" flood-color="#25323b" flood-opacity="0.16" />
    </filter>
  </defs>
  <rect width="1024" height="1024" rx="224" fill="url(#masterBg)" />
  <circle cx="756" cy="258" r="86" fill="#f3a77b" opacity="0.92" />
  <circle cx="244" cy="760" r="62" fill="#ffffff" opacity="0.48" />
  <path d="M286 300c0-50 40-90 90-90h272c50 0 90 40 90 90v424c0 50-40 90-90 90H376c-50 0-90-40-90-90V300Z" fill="url(#masterCard)" stroke="#ffffff" stroke-width="22" filter="url(#softShadow)" />
  <path d="M372 392h274" stroke="#338f8b" stroke-width="34" stroke-linecap="round" />
  <path d="M372 510h188" stroke="#78c8bd" stroke-width="34" stroke-linecap="round" />
  <path d="M372 626h236" stroke="#f3a77b" stroke-width="34" stroke-linecap="round" />
  <path d="M706 560c-74-12-116-54-132-128-16 74-58 116-132 128 74 16 116 58 132 132 16-74 58-116 132-132Z" fill="#338f8b" opacity="0.12" />
  <path d="M768 714c-48-8-76-36-86-84-10 48-38 76-86 84 48 10 76 38 86 86 10-48 38-76 86-86Z" fill="#338f8b" />
</svg>
