<svg xmlns="http://www.w3.org/2000/svg" viewBox="0 0 1290 2796" role="img" aria-label="하루풀이 splash master">
  <defs>
    <linearGradient id="splashBg" x1="160" y1="220" x2="1130" y2="2600" gradientUnits="userSpaceOnUse">
      <stop offset="0" stop-color="#fff8ef" />
      <stop offset="0.58" stop-color="#f7fbf8" />
      <stop offset="1" stop-color="#dff4ef" />
    </linearGradient>
    <linearGradient id="splashCard" x1="464" y1="1020" x2="826" y2="1500" gradientUnits="userSpaceOnUse">
      <stop offset="0" stop-color="#ffffff" />
      <stop offset="1" stop-color="#f4fbf8" />
    </linearGradient>
    <filter id="splashShadow" x="-25%" y="-25%" width="150%" height="150%">
      <feDropShadow dx="0" dy="34" stdDeviation="30" flood-color="#25323b" flood-opacity="0.12" />
    </filter>
  </defs>
  <rect width="1290" height="2796" fill="url(#splashBg)" />
  <circle cx="936" cy="840" r="82" fill="#f3a77b" opacity="0.82" />
  <circle cx="340" cy="1818" r="58" fill="#78c8bd" opacity="0.28" />
  <circle cx="990" cy="1916" r="42" fill="#ffffff" opacity="0.72" />
  <g filter="url(#splashShadow)">
    <rect x="450" y="996" width="390" height="510" rx="92" fill="url(#splashCard)" stroke="#ffffff" stroke-width="18" />
    <path d="M520 1130h250" stroke="#338f8b" stroke-width="28" stroke-linecap="round" />
    <path d="M520 1256h172" stroke="#78c8bd" stroke-width="28" stroke-linecap="round" />
    <path d="M520 1382h220" stroke="#f3a77b" stroke-width="28" stroke-linecap="round" />
    <path d="M810 1414c-42-7-66-31-75-73-9 42-33 66-75 73 42 9 66 33 75 75 9-42 33-66 75-75Z" fill="#338f8b" />
  </g>
  <text x="645" y="1676" text-anchor="middle" fill="#243039" font-size="82" font-weight="800" font-family="-apple-system, BlinkMacSystemFont, Segoe UI, sans-serif">하루풀이</text>
  <text x="645" y="1766" text-anchor="middle" fill="#607078" font-size="38" font-weight="700" font-family="-apple-system, BlinkMacSystemFont, Segoe UI, sans-serif">오늘의 흐름을 차분하게</text>
</svg>
